<?xml version="1.0" encoding="UTF-8"?>
<svg id="Layer_2" data-name="Layer 2" xmlns="http://www.w3.org/2000/svg" viewBox="0 0 122.41 221.21">
  <g id="Layer_1-2" data-name="Layer 1">
    <g>
      <path d="M.96,29.56c0-.1-.34-.2-.39-.3-.07-.13-.14-.58-.13-.74l.17-2.58.28.47.38-2.85c.27.54.01,1.15,0,1.72l-.1,6.03-.18-.15-.04-1.6Z"/>
      <path d="M50.26,220.42l2.45.12v.39s-4.41-.27-4.41-.27l-2.28-.15c.72-.36,1.49-.23,2.26-.2l1.98.1Z"/>
      <path d="M60.4,220.8c-1.28.6-2.76.42-4.22.22l-1.38-.14v-.34s3.75.4,3.75.4l1.85-.14Z"/>
      <path d="M76.03,184.68l-.25-2.42.66-.44-.03,1.23.23.75c.05.16-.2.37-.62.89Z"/>
      <path d="M62.62,220.45l3.03.05.13.22-4.58-.03,1.32-.74c.52.02.62.17.11.5Z"/>
      <path d="M75.34,179.7l.14-1.65c.01-.16.15-.64.02-.71l-.55-.29.49-1.13c.37,1.24.42,2.48.13,3.67.12.06.15.07.16.1l.17.91.08.41c.02.09-.41.12-.41.02l-.04-1.2-.19-.13Z"/>
      <path d="M70.88,219.88c.47-.02.98.07,1.42.26-.98.18-1.79.24-2.66-.2l1.24-.06Z"/>
      <path d="M.96,41.83c-.33-.31-.35-.58-.33-.98-.04-.13-.28-.46-.2-.58l.5-.78.03,2.34Z"/>
      <rect x="103.83" y="212.89" width="1.27" height=".48" transform="translate(-94.76 84.11) rotate(-30.96)"/>
      <path d="M121.48,42.03l.16.59c.03.09-.06.26-.11.34-.07.13-.33-.31-.39-.44l-.17-.42c-.04-.09.07-.26.11-.35.04-.09.35.2.4.29Z"/>
      <path d="M119.68,33.66l-.07-1.39c.26.37.47.77.07,1.39Z"/>
      <polygon points="1.73 21.75 1.67 20.22 1.87 20.09 1.93 21.62 1.73 21.75"/>
      <path d="M.85,46.35c-.21-.22-.46-.61-.35-.7l.5-.44-.15,1.14Z"/>
      <path d="M5.62,83.9c-.35-.25-.53-.95-.31-1.37l.31,1.37Z"/>
      <path d="M2.96,75.83l-.35-1.51c.37.42.52.91.35,1.51Z"/>
      <path d="M3.71,210.84s-.44.09-.52.11c-.12.02-.1-.37-.07-.55.01-.07.1-.12.15-.06l.44.5Z"/>
      <path d="M2.4,16.86c-.2-.11-.48-.25-.44-.36l.33-.77.11,1.13Z"/>
      <polygon points="84.4 220.67 83.11 220.74 82.98 220.54 84.28 220.47 84.4 220.67"/>
      <g>
        <path d="M2.38,67.97c.18-1.51.94-2.53-.54-3.52.3-.43.58-.82.55-1.08-.03-.3-.43-.78-.71-1.11l.27-.06c.07-.02.33,0,.29-.05l-.38-.48-.15-3.46-1.03-6.04-.31,1.61-.37-2.12.58.71-.22-2.11.32-.33c.05,1.16.08,1.93.49,2.97l.18-3.01.14-6.41.05-1.88.38-5.26.13-2.7-.07-7.33.41-3.92.44-2.98c.2-1.37.26-2.9.13-4.28l-.36-3.91c-.11-1.2-1.43-4.95.47-5.67.97-.37,1.49-.74,2.03-1.66.45-.75,3.72-1.75,5.16-1.72l3.87.09,7.8.15,7.02-.12c.58-.01,1.36-.26,1.82-.43,4.58.13,9.12.37,13.67-.01l2.68-.45c.39-.07.97.12,1.34.29,2.2-1.08,2.96.73,4.68-.37l.65.37c.13.08.44-.19.6-.31l1.56.26c2.44-.4,4.79-.46,7.15-.33,0,.22-.02.65.07.61.12-.05.43-.21.53-.3l.58-.51c.31-.27,1.32,1.08,2.24-.11l1.62.76c.53-.23,1.2-.58,1.72-.58h3.83c.73-.02,1.66.17,2.33.43l.83-.29c.23-.08.76.29.98.34.47-.15.98-.25,1.43-.25l4.58-.02c.97,0,1.68-.09,2.6-.14l6.19-.31L98.83.03h4.55c2.16-.02,4.27-.11,6.43.19l4.18.57c.61.08,1.46.53,1.84.81l-.68.51c-.43.32,1.11.46,1.53,1.35l.68-.33-1.18,2,.5.2.89,3.9.31,2.69.1,1.58.11,5.86c0,.14-.1.5-.13.58s.25.06.43.06l-.61,1.78.18,1.34.37,3.96.22,2.35.51,3.08.45,3.6.3,2.47.46,1.7c.45,1.68.62,3.46.85,5.2l.35,2.7.45,1.43c-.87.96.65,1.53.33,2.55s.16,2.12.14,3.13c-.08,3.6-.87,7.1-1.58,10.65l-.53,2.66-1.05,5.82-.21,1.06c-.02.09.04.5.06.63.02.14-.33.06-.52.04-.02.06-.19.44-.18.43l.39-.04s.17.26.1.3l-.57.32c-.6.33-.83,1.35-.54,1.91l.45-1.58.46.03-.44,1.61c-.09.34-.52.85-.77,1.01.03.02.37.22.37.21s-.12.16-.22.3c-.67.89-.12,1.54-1.05,2.36l-2.39,5.71-1.37,2.89-1.97,3.79-2.63,4.88-1.3,1.87-.36-.04,1.09-1.75-.08-.33-1.92,2.84-1.82,2.81.25.08,1.65-2.26c.1-.06.24,0,.41.16l-1.82,2.34c-.52.67-.98,1.28-1.38,2.1-.94,1.93-2.32,3.45-3.8,5.23-.25.26-.35.08-.27-.39.16-.32.05-.27-.17-.06l-.8,1.18c-.06.08.29.4.36.48.1.11-.05.4-.16.53l-1.19,1.34-.12-.34-.03-.36c0-.07-.26.07-.26.14l-.04.81c0,.16-.25.07-.63-.05l-.16.36c-.03.06-.08.13,0,.12l.69-.11-1.49,2.34-1.07.64c-1.01.61-2.22,1.16-2.22,1.15l.24-.71h-.24s-.37-.03-.37-.03c-.99,1.58-2.03,2.1-2.67,3.08-.15.22.64-.19.73-.04.04.07.18.25.19.27,0,0-.3.09-.51.15s-.54.38-.66.58l-1.32,2.3c-.1.42-.24.43-.28.01.2-.5-.45-.29-.64,0l-1.06,1.58c.1.41.03.73-.07,1.07l-.18.59.28.06.26-.56c.03-.08.31-.08.29,0l-.17.45-.67,1.82-.16-2.21c-.71.71-.79,1.8.06,2.39l-.36,1.49-.2-.6c-.03-.09-.33-.14-.35-.06l-.69,2.69-1.77,6.81-.87,2.96-1.19,3.96-.54,2.84-.85,2.52-.28,1.5-.48,5.58-.46,7.34c-.04.58-.27.91,0,1.63l-.73,1.72v-2.15c-.61.13-.88,1.14-.7,1.79-.15.21-.21.26-.23.34l-.18.56c-.04.12.55-.06.68-.11l-.21,2.98-.67,1.2.84,7.51.36,2.99.15,1.16.04.36c0,.09.15.22.29.37l-.14-2.41-.11-1.88.64.07.24,5.16-.38.27.72,2.34c.43-.01,1.4.01,1.98.17l2.04.55,4.1,2.04c.45.23,1.4.2,1.84.33l3.88,1.15,1.96.26,2.09.53c2.24.57,4.07,2.01,5.88,3.29l2.41,1.71c1.64,1.17,2.7,3.38,2.22,5.25l-.63,2.45c-.08.15-.06.34.05.48l.69.13-.14.17-1.34,1-1.4.99h.51s.81.48.81.48l-1.39.21h-.32c.43.27.77.46.55.33-.62.18-.93.2-.95.38l-.13.94c-1.33.65-2.49,1.46-3.14,2.95l-2.29.41-2.66.57-1.97-.12-2.4.05-2.19.12-3.35.15c-.64.03-.93.15-1.49-.21l-1.98-.13-4.12-.27c-.06,0-.43.18-.39.21.07.05-.19-.13-.32-.22l-3.12.11-1.93.08c-1.8.08-2.93,1.05-4.1.23l-2.9.35c-.09-.15-.25-.44-.18-.31l-2.89.02-1.53.47-4.38-.26-1.41-.05-4.52-.1-4.11-.36-1.67-.26-.58-.11c-.12-.02.1-.49.14-.53l-.55-.15-.05.48c-.02.15-.6.04-.71,0l-.48-.27c.47-.44.41-.35.33-.36l-.63-.1-.8-.04c-.86.76-2.29.5-3.28.07-.06-.13-.17-.4-.21-.34l-.31.47-2.29-.36c-.24-.04-.91-.3-.81-.29.73-.12.78-.25.41-.46-.52.11-1.11.23-.95.2l-.26.58-2.44-.47c-3.52,1.12-4.83-.59-4.6-.62l-.78.1-1.96-.06-1.77-.59-2.1-.69-1.26-.61c.33-.3.31-.28.31-.28l.47.35,1.87.39c.11.02.37-.1.29-.18-.08-.09-.38-.39-.48-.43l-1.32-.52c-.7-.28-1.42-.45-2.16-.6-.02-.06-.43-.59-.65-.63l-4.6-.85c-.66-.12-1.42-.05-2.04,0-.35-.11-.9-.69-1.11-.96-2.11-.13-2.56-1.57-3.6-1.95.31,1.1-1.64-.27-2-1.52l-.72-2.46-.37-2.91c-.12-.91.3-1.35.77-2.03s.84-1.51,1.62-1.88c2.56-1.24,5.13-1.88,7.94-2.33,1.18-.85,2.48-1.39,3.94-1.65,2.35-.34,4.7-.75,6.81-1.79,2.86-1.4,5.71-2.04,8.88-2.35l2.36-.59c.94.46,1.88.35,2.8-.05.54-.23,1.68.05,2.27-.06l5.43-1.04,3.3-.6-.51-3.55.04-2.98-.35-4.15-.12-2.24-.16-2.39-.48-3.48-.05-1.74c-.22-.9-.39-1.79-.25-2.76l.37,1.79.1-2.93-.5-.19-.24-4.46-.57-4.56.36-.42c.07-.08-.29-.61-.13-.3l-.24.27v-2.74s.56-.36.56-.36l-.56-.2c-.09-.03.02-.3.05-.46.63-2.94-.77-4.79-.03-6.7-.93-1.35.44-2.69-.37-3.69,0-.66-.02-1.26-.59-1.93l-2.67-3.15c-.81-.96-1.2-2.06-1.85-3.08l-2.44-3.83c-.42-.66-.9-1.07-1.35-1.7l-2.54-3.51-2.84-2.95-2.84-2.56-2.34-2.3-1.34-1.25-2.4-2.74c-3-3.42-5.59-6.98-7.38-11.21-1.04-2.45-2.28-4.54-3.76-6.75-.94-1.4-1.27-3.35-2.03-4.93l-1.04-2.14c.05-.6,0-1.13-.2-1.69l-1.06-3.02-2.07-6.56c-.19-.6-.41-.29-.88-1.22-.1-.19.16-.6.49-.74l-.09-1.16-.1-.47c-.06-.27-.38-.73-.65-1.08-.32-.19-.27-.29.27-.27l-.72-1.08-.03-.47c0-.08.12-.3.16-.23l.29.48.08-.8c.06-.36.13-.42.15,0l.18.49.1-.03ZM3.49,9.6c.17-.62.09-1.19.21-1.88l.31-1.77-.78.31c-.21.08-.15.78-.11,1.03l.37,2.32ZM3.24,13.36c.17-1.55.14-3.34-.8-4.76l.8,4.76ZM2.64,68.13l-.21.09.27,2.47.33-.25-.39-2.32ZM3.39,71.26c.3-.45.25-1.05-.34-1.32l.34,1.32ZM2.96,70.73l-.24.12.69,2.88.14-.14-.22-1.85.42.8c.07-.13.07-.82-.11-1.02l-.68-.79ZM4.68,76.25l-.41-1.56c-.25.64-.02,1.24.41,1.56ZM110.84,91.59l-.32-.53c.45-.49.79-.91.84-1.58l-1.45,2.35.93-.23ZM104.89,102.26l1.09-1.56,1.29-2.27,1.97-3.39c.57-.98.96-1.79,1.3-2.97l-1.06,1.14c-.39.43-.81.93-1.06,1.5l-1.22,2.76-3.62,5.9-.29.48c-.05.07.24.2.55-.22l1.05-1.37ZM99.83,109.55l1.82-2.55c.3-.43.46-.72.26-1.33l-1.45,2.27-1.39,2.17.69.54c.11.09.49-.39.42-.52l-.34-.59ZM102.5,108.13l.54-1.09-.7.54c-.12.09.13.66.16.55ZM101.29,110.01c.26-.18.4-.8.23-.85-.28.18-.4.78-.23.85ZM96.95,115.05l-.37-.64-.79,1.28,1.16-.64ZM94.9,118.56h-.51c-.21.86.71.82.51,0ZM87.23,124.88l.65-.89c-.55.1-.96.52-1.11.97l-.42,1.27c.61-.45.71-.81.89-1.35ZM80.23,142.42l-.3,1.48.45.09.3-1.48-.45-.09ZM46.37,171.07l-.29-3.49c-.33,1.28-.32,2.51.29,3.49ZM75.61,169.98l.18-.17-.06-1.52-.32.14.2,1.55ZM74.52,173.9c-.06-.46-.12-.8-.23-1.1.04-.03.38-.44.28-.56l-.3-.41c0-.12,0-.25-.03-.28-.02-.02-.39-.03-.46-.03s0,.21.05.35c-.11,1.42.23,2.75.93,3.85l-.24-1.82ZM47.79,185.99l-.31-.97-.17.65c-.04.14.35.34.48.32ZM47.76,187.86c-.07-.78-.15-1.18-.3-1.65-.18.68-.05,1.2.3,1.65ZM23.51,215.51c-.78-.24-1.47-.35-2.23-.35.45.74,1.35,1.01,2.23.35ZM28.09,216.76c-.53-.93-1.4-.93-2.25-.55l2.25.55ZM35.71,216.51l-1.13.12.75.37c.11.05.28-.29.38-.49ZM41.56,217.34l-3.33-.58c.99.63,2.11.82,3.33.58ZM47.12,218.06c-.71-.56-1.53-.45-2.12-.23l2.12.23ZM60.89,218.7l-2.75-.23c.9.74,1.9.5,2.75.23Z"/>
        <path d="M16.57,214.4c-.66.41-1.84.26-2.53-.3-1.32.33-3.4-.03-4.8-.7-.75-.41-1.53-.63-2.33-.71-.77-.66-1.59-1.06-2.65-1.21.41-.16,1.23-.23,1.7-.03l2.18.93c.43.18,1.38.41,1.81.42l1.42.06,3.86.56c.34.36.63.6,1.34.97Z"/>
        <path d="M89.5,122.98l1.61-1c-.05.65-.74,1.37-1.61,1Z"/>
        <polygon points="1.72 64.3 1.19 64.64 1.3 62.94 1.72 64.3"/>
        <path d="M1.92,65.73c.06.07-.26.35-.32.29l-.5-.54c-.11.11.14-.49.24-.38l.58.64Z"/>
      </g>
    </g>
  </g>
</svg>