<svg xmlns="http://www.w3.org/2000/svg" width="17" height="18" fill="none"><path fill="#fff" d="M0 .527v1.957c0 .282.211.516.492.528 1.759.07 3.096.527 4.01.984a6.4 6.4 0 0 1 1.301.832.54.54 0 0 1 .188.41v7.524c0 .152-.07.304-.188.41a8 8 0 0 1-1.3.832c-.915.457-2.252.914-4.01.984-.282 0-.493.246-.493.528v1.957c0 .293.234.527.528.527h15.944a.525.525 0 0 0 .528-.527v-1.957a.52.52 0 0 0-.492-.528c-1.759-.07-3.096-.527-4.01-.984a7 7 0 0 1-1.313-.832.54.54 0 0 1-.188-.41V5.238c0-.152.07-.304.188-.41a7.7 7.7 0 0 1 1.313-.832c.914-.457 2.251-.914 4.01-.984.281 0 .492-.246.492-.528V.527A.525.525 0 0 0 16.472 0H.528A.525.525 0 0 0 0 .527" style="mix-blend-mode:difference"/></svg>