<svg xmlns="http://www.w3.org/2000/svg" width="19" height="20" fill="none"><path fill="#fff" d="M10.43 9.694a.65.65 0 0 1 0-.86l3.611-3.779 3.856-4.026a.65.65 0 0 0 .167-.43c0-.325-.223-.586-.502-.586h-4.078a.47.47 0 0 0-.334.143L10.13 3.31 6.965 6.62l-1.103 1.16-.268.286c-.323.339-.836.065-.836-.43V.586C4.758.261 4.535 0 4.257 0H.5C.223 0 0 .26 0 .586v18.828c0 .325.223.586.501.586h3.756c.278 0 .501-.26.501-.586V15.01a.58.58 0 0 1 .168-.43l.68-.717.512-.534a.454.454 0 0 1 .668 0l6.096 6.515c.09.104.212.156.334.156H18.5c.278 0 .501-.26.501-.586v-.287a.58.58 0 0 0-.167-.43l-4.335-4.625-4.09-4.365z" style="mix-blend-mode:difference"/></svg>