<svg xmlns="http://www.w3.org/2000/svg" width="23" height="18">
    <path fill="#fd7c5a" d="M22.448 0H.552C.257 0 0 .235 0 .528v16.944c0 .282.245.528.552.528h21.896a.54.54 0 0 0 .552-.528V.528C23 .235 22.767 0 22.448 0m-4.683 12.758a.5.5 0 0 1-.209.41c-.232.188-.698.505-1.373.833-1.042.493-2.611.997-4.707.997-2.097 0-3.666-.492-4.696-.997a7.4 7.4 0 0 1-1.373-.832.56.56 0 0 1-.209-.41V5.241c0-.164.074-.305.209-.41.233-.2.699-.517 1.373-.833 1.042-.493 2.611-.997 4.696-.997s3.665.492 4.707.997a7.4 7.4 0 0 1 1.374.832.5.5 0 0 1 .208.41z"/>
</svg>