<svg xmlns="http://www.w3.org/2000/svg" width="29" height="18" fill="#ffffff"><path fill="#fff" d="M0 .528v3.424c0 .41.457.668.797.445.2-.129.434-.258.704-.398.997-.505 2.498-.997 4.503-.997s3.495.504 4.503.997a6.4 6.4 0 0 1 1.302.832.54.54 0 0 1 .187.41v12.231c0 .293.235.528.528.528h3.952a.525.525 0 0 0 .528-.528V5.242c0-.153.07-.305.187-.41a8 8 0 0 1 1.302-.833c.997-.505 2.498-.997 4.503-.997s3.495.504 4.503.997c.27.129.504.27.704.398A.52.52 0 0 0 29 3.952V.528A.525.525 0 0 0 28.472 0H.528A.525.525 0 0 0 0 .528" /></svg>